<?xml version="1.0" encoding="UTF-8" standalone="no"?>
<!DOCTYPE svg PUBLIC "-//W3C//DTD SVG 1.1//EN" "http://www.w3.org/Graphics/SVG/1.1/DTD/svg11.dtd">
<svg width="100%" height="100%" viewBox="0 0 690 250" version="1.1" xmlns="http://www.w3.org/2000/svg" xmlns:xlink="http://www.w3.org/1999/xlink" xml:space="preserve" xmlns:serif="http://www.serif.com/" style="fill-rule:evenodd;clip-rule:evenodd;stroke-linejoin:round;stroke-miterlimit:2;">
    <g transform="matrix(1,0,0,1,-140,0)">
        <g transform="matrix(0.423333,0,0,0.423333,-358.301,-247.817)">
            <g id="Icon.afdesign">
                <g>
                    <g id="Rounded-Gap-Large" serif:id="Rounded Gap Large">
                        <path d="M1546.56,703.717C1544.21,705.087 1541.31,705.092 1538.95,703.732C1532.55,700.038 1519.41,692.448 1509.83,686.917C1507.48,685.563 1506.04,683.062 1506.03,680.354C1506.03,677.647 1507.47,675.144 1509.82,673.786C1523.68,665.752 1548.28,651.503 1572.3,637.588C1586,629.653 1602.89,629.636 1616.6,637.542C1630.31,645.449 1638.76,660.075 1638.75,675.903C1638.74,703.692 1638.74,732.156 1638.73,748.205C1638.73,750.915 1637.28,753.418 1634.94,754.772C1632.59,756.126 1629.7,756.126 1627.35,754.771C1617.77,749.237 1604.62,741.647 1598.23,737.957C1595.88,736.601 1594.43,734.094 1594.44,731.382C1594.44,723.518 1594.46,706.611 1594.47,693.494C1594.48,689.854 1592.53,686.49 1589.38,684.675C1586.22,682.86 1582.34,682.871 1579.19,684.703C1567.89,691.287 1553.35,699.763 1546.56,703.717Z" style="fill:black;"/>
                        <g transform="matrix(-0.5,0.866025,-0.866025,-0.5,2976.98,41.9634)">
                            <path d="M1546.9,703.321C1544.56,704.68 1541.66,704.681 1539.31,703.325C1532.92,699.635 1519.78,692.045 1510.19,686.511C1507.84,685.156 1506.4,682.653 1506.4,679.944C1506.4,677.235 1507.84,674.731 1510.19,673.376C1524.04,665.372 1548.57,651.201 1572.51,637.366C1586.19,629.46 1603.05,629.448 1616.75,637.334C1630.44,645.221 1638.89,659.809 1638.92,675.612C1638.97,703.321 1639.02,731.719 1639.05,747.758C1639.06,750.47 1637.61,752.978 1635.26,754.336C1632.92,755.695 1630.02,755.696 1627.67,754.34C1618.08,748.799 1604.93,741.208 1598.55,737.527C1596.22,736.179 1594.77,733.693 1594.76,730.996C1594.72,723.175 1594.64,706.346 1594.58,693.312C1594.56,689.689 1592.61,686.348 1589.47,684.546C1586.32,682.743 1582.46,682.75 1579.32,684.565C1568.11,691.054 1553.66,699.414 1546.9,703.321Z" style="fill:black;"/>
                        </g>
                        <g transform="matrix(-0.5,-0.866025,0.866025,-0.5,1452.15,2599.13)">
                            <path d="M1546.36,703.264C1544.02,704.6 1541.14,704.593 1538.81,703.245C1532.43,699.565 1519.28,691.973 1509.68,686.432C1507.34,685.076 1505.89,682.569 1505.89,679.857C1505.89,677.145 1507.35,674.641 1509.7,673.289C1523.62,665.286 1548.28,651.108 1572.34,637.273C1586.05,629.393 1602.92,629.422 1616.6,637.35C1630.28,645.278 1638.69,659.901 1638.67,675.713C1638.62,703.385 1638.58,731.72 1638.56,747.713C1638.56,750.421 1637.11,752.921 1634.76,754.273C1632.42,755.625 1629.53,755.624 1627.18,754.27C1617.6,748.739 1604.46,741.15 1598.06,737.455C1595.7,736.095 1594.26,733.577 1594.27,730.856C1594.3,723.043 1594.37,706.347 1594.42,693.376C1594.43,689.746 1592.51,686.384 1589.38,684.556C1586.24,682.727 1582.37,682.709 1579.22,684.508C1567.85,690.997 1553.17,699.376 1546.36,703.264Z" style="fill:black;"/>
                        </g>
                        <g transform="matrix(-0.5,0.866025,-0.866025,-0.5,2976.98,41.9634)">
                            <path d="M1672.61,805.876C1670.26,804.516 1667.37,804.513 1665.02,805.867C1662.67,807.221 1661.22,809.727 1661.22,812.438L1661.22,846.064C1661.22,848.763 1662.65,851.258 1664.99,852.617C1671.73,856.548 1686.22,864.994 1697.46,871.54C1700.59,873.365 1702.51,876.719 1702.51,880.342C1702.5,883.966 1700.56,887.312 1697.42,889.124C1651.85,915.434 1517.3,993.119 1483.93,1012.38C1479.26,1015.08 1473.5,1015.08 1468.83,1012.37C1452.12,1002.67 1411.89,979.328 1392.1,967.842C1389.75,966.481 1386.86,966.476 1384.51,967.83C1382.16,969.184 1380.71,971.69 1380.71,974.402L1380.71,1008.01C1380.71,1010.71 1382.15,1013.21 1384.49,1014.57C1395.89,1021.19 1430.63,1041.34 1453.97,1054.89C1467.83,1062.93 1484.93,1062.95 1498.81,1054.93C1546.88,1027.18 1661.4,961.063 1734.9,918.631C1748.58,910.73 1757.02,896.132 1757.03,880.33C1757.04,864.528 1748.63,849.918 1734.95,841.996C1711.01,828.122 1686.47,813.907 1672.61,805.876Z" style="fill:black;"/>
                        </g>
                        <g transform="matrix(-0.5,-0.866025,0.866025,-0.5,1452.1,2599.13)">
                            <path d="M1672.04,805.8C1669.69,804.445 1666.8,804.445 1664.45,805.8C1662.1,807.155 1660.66,809.659 1660.66,812.368L1660.66,845.996C1660.66,848.706 1662.1,851.21 1664.45,852.565C1671.28,856.505 1685.98,864.994 1697.35,871.561C1700.5,873.376 1702.43,876.732 1702.43,880.363C1702.43,883.994 1700.5,887.349 1697.35,889.165C1651.71,915.519 1517.23,993.158 1483.91,1012.39C1479.25,1015.09 1473.51,1015.09 1468.84,1012.39C1452.04,1002.7 1411.43,979.245 1391.52,967.754C1389.18,966.399 1386.29,966.399 1383.94,967.754C1381.59,969.109 1380.15,971.612 1380.15,974.322L1380.15,1007.95C1380.15,1010.66 1381.59,1013.16 1383.94,1014.52C1395.43,1021.15 1430.51,1041.41 1454,1054.97C1467.85,1062.96 1484.91,1062.96 1498.76,1054.97C1546.77,1027.25 1661.26,961.148 1734.79,918.697C1748.48,910.79 1756.92,896.177 1756.92,880.363C1756.92,864.549 1748.48,849.936 1734.79,842.029C1710.68,828.111 1685.96,813.841 1672.04,805.8Z" style="fill:black;"/>
                        </g>
                        <path d="M1672.24,806.228C1669.89,804.879 1667,804.883 1664.66,806.238C1662.31,807.594 1660.87,810.096 1660.87,812.803L1660.87,846.434C1660.87,849.157 1662.33,851.671 1664.69,853.021C1671.48,856.89 1685.95,865.152 1697.22,871.586C1700.38,873.391 1702.34,876.748 1702.35,880.388C1702.36,884.028 1700.42,887.395 1697.27,889.215C1651.53,915.624 1517.15,993.206 1483.89,1012.41C1479.24,1015.09 1473.51,1015.1 1468.86,1012.43C1452.09,1002.81 1411.58,979.562 1391.72,968.166C1389.37,966.819 1386.48,966.825 1384.14,968.181C1381.8,969.537 1380.36,972.038 1380.36,974.744L1380.36,1008.4C1380.36,1011.12 1381.81,1013.62 1384.17,1014.98C1395.66,1021.57 1430.62,1041.63 1454.03,1055.07C1467.87,1063 1484.88,1062.98 1498.69,1055.01C1546.63,1027.33 1661.08,961.252 1734.64,918.777C1748.35,910.863 1756.79,896.232 1756.78,880.403C1756.76,864.575 1748.3,849.959 1734.58,842.07C1710.61,828.289 1686.08,814.189 1672.24,806.228Z" style="fill:black;"/>
                    </g>
                </g>
            </g>
        </g>
        <g transform="matrix(0.847364,0,0,0.847364,386.31,147.982)">
            <g transform="matrix(209.407,0,0,209.407,0,0)">
                <path d="M0.384,-0L0.165,-0C0.133,-0 0.111,-0.007 0.097,-0.021C0.084,-0.035 0.077,-0.058 0.077,-0.089L0.077,-0.627C0.077,-0.659 0.084,-0.681 0.098,-0.695C0.112,-0.709 0.134,-0.716 0.165,-0.716L0.397,-0.716C0.431,-0.716 0.461,-0.714 0.486,-0.709C0.511,-0.705 0.533,-0.697 0.553,-0.685C0.57,-0.675 0.585,-0.662 0.598,-0.647C0.611,-0.631 0.621,-0.614 0.628,-0.595C0.635,-0.577 0.638,-0.557 0.638,-0.536C0.638,-0.465 0.602,-0.412 0.531,-0.379C0.625,-0.349 0.672,-0.291 0.672,-0.204C0.672,-0.164 0.662,-0.128 0.641,-0.096C0.621,-0.064 0.593,-0.04 0.558,-0.025C0.536,-0.016 0.511,-0.009 0.483,-0.006C0.455,-0.002 0.422,-0 0.384,-0ZM0.373,-0.318L0.222,-0.318L0.222,-0.109L0.378,-0.109C0.476,-0.109 0.525,-0.144 0.525,-0.215C0.525,-0.251 0.512,-0.277 0.487,-0.293C0.461,-0.31 0.424,-0.318 0.373,-0.318ZM0.222,-0.607L0.222,-0.422L0.355,-0.422C0.391,-0.422 0.419,-0.425 0.439,-0.432C0.458,-0.439 0.473,-0.452 0.484,-0.471C0.492,-0.485 0.496,-0.5 0.496,-0.517C0.496,-0.553 0.483,-0.577 0.458,-0.589C0.432,-0.601 0.393,-0.607 0.34,-0.607L0.222,-0.607Z" style="fill:black;fill-rule:nonzero;"/>
            </g>
            <g transform="matrix(209.407,0,0,209.407,150.614,0)">
                <path d="M0.084,-0.076L0.084,-0.64C0.084,-0.669 0.091,-0.691 0.104,-0.706C0.117,-0.721 0.135,-0.728 0.156,-0.728C0.178,-0.728 0.195,-0.721 0.209,-0.706C0.222,-0.692 0.229,-0.67 0.229,-0.64L0.229,-0.076C0.229,-0.047 0.222,-0.024 0.209,-0.01C0.195,0.005 0.178,0.012 0.156,0.012C0.135,0.012 0.118,0.005 0.104,-0.01C0.091,-0.025 0.084,-0.047 0.084,-0.076Z" style="fill:black;fill-rule:nonzero;"/>
            </g>
            <g transform="matrix(209.407,0,0,209.407,216.155,0)">
                <path d="M0.267,-0.641L0.546,-0.219L0.546,-0.645C0.546,-0.673 0.552,-0.693 0.564,-0.707C0.576,-0.721 0.592,-0.728 0.612,-0.728C0.633,-0.728 0.649,-0.721 0.661,-0.707C0.673,-0.693 0.679,-0.673 0.679,-0.645L0.679,-0.082C0.679,-0.019 0.653,0.012 0.601,0.012C0.588,0.012 0.576,0.01 0.566,0.007C0.556,0.003 0.546,-0.003 0.537,-0.011C0.528,-0.019 0.519,-0.029 0.511,-0.04C0.503,-0.051 0.496,-0.062 0.488,-0.073L0.216,-0.49L0.216,-0.071C0.216,-0.043 0.209,-0.023 0.197,-0.009C0.184,0.005 0.168,0.012 0.148,0.012C0.127,0.012 0.111,0.005 0.099,-0.009C0.086,-0.023 0.08,-0.044 0.08,-0.071L0.08,-0.623C0.08,-0.646 0.083,-0.665 0.088,-0.678C0.094,-0.693 0.104,-0.705 0.119,-0.714C0.133,-0.723 0.148,-0.728 0.165,-0.728C0.178,-0.728 0.189,-0.726 0.198,-0.722C0.208,-0.717 0.216,-0.712 0.223,-0.705C0.23,-0.697 0.237,-0.688 0.244,-0.677C0.252,-0.665 0.259,-0.653 0.267,-0.641Z" style="fill:black;fill-rule:nonzero;"/>
            </g>
            <g transform="matrix(209.407,0,0,209.407,375.256,0)">
                <path d="M0.224,-0.64L0.224,-0.389L0.509,-0.686C0.522,-0.7 0.534,-0.711 0.544,-0.718C0.553,-0.725 0.566,-0.728 0.582,-0.728C0.603,-0.728 0.62,-0.722 0.633,-0.71C0.645,-0.698 0.652,-0.683 0.652,-0.665C0.652,-0.644 0.641,-0.623 0.619,-0.602L0.443,-0.435L0.646,-0.144C0.66,-0.124 0.671,-0.106 0.678,-0.091C0.685,-0.076 0.689,-0.061 0.689,-0.047C0.689,-0.031 0.683,-0.017 0.67,-0.005C0.658,0.006 0.641,0.012 0.619,0.012C0.599,0.012 0.583,0.008 0.57,-0.001C0.557,-0.009 0.546,-0.021 0.538,-0.035C0.529,-0.049 0.521,-0.063 0.514,-0.074L0.343,-0.338L0.224,-0.224L0.224,-0.076C0.224,-0.046 0.217,-0.024 0.204,-0.01C0.19,0.005 0.172,0.012 0.151,0.012C0.139,0.012 0.127,0.009 0.115,0.002C0.104,-0.004 0.095,-0.013 0.089,-0.024C0.084,-0.033 0.082,-0.044 0.081,-0.056C0.08,-0.068 0.079,-0.085 0.079,-0.108L0.079,-0.64C0.079,-0.669 0.086,-0.691 0.098,-0.706C0.111,-0.721 0.129,-0.728 0.151,-0.728C0.173,-0.728 0.19,-0.721 0.204,-0.706C0.217,-0.692 0.224,-0.67 0.224,-0.64Z" style="fill:black;fill-rule:nonzero;"/>
            </g>
        </g>
        <g transform="matrix(1.09466,0,0,1.09466,394.916,230.035)">
            <g transform="matrix(87.253,0,0,87.253,0,0)">
                <path d="M0.622,-0.215C0.622,-0.172 0.611,-0.133 0.589,-0.098C0.566,-0.064 0.534,-0.037 0.491,-0.017C0.448,0.002 0.397,0.012 0.338,0.012C0.267,0.012 0.209,-0.001 0.163,-0.028C0.131,-0.047 0.104,-0.073 0.084,-0.105C0.063,-0.137 0.053,-0.168 0.053,-0.198C0.053,-0.216 0.059,-0.231 0.072,-0.243C0.084,-0.256 0.099,-0.262 0.118,-0.262C0.133,-0.262 0.146,-0.257 0.157,-0.248C0.168,-0.238 0.177,-0.223 0.184,-0.204C0.193,-0.181 0.203,-0.162 0.214,-0.147C0.224,-0.132 0.239,-0.119 0.258,-0.109C0.278,-0.099 0.303,-0.094 0.334,-0.094C0.377,-0.094 0.412,-0.104 0.439,-0.124C0.466,-0.144 0.479,-0.169 0.479,-0.199C0.479,-0.223 0.472,-0.242 0.457,-0.257C0.443,-0.272 0.424,-0.283 0.401,-0.291C0.378,-0.299 0.347,-0.307 0.309,-0.316C0.258,-0.328 0.215,-0.342 0.18,-0.358C0.145,-0.374 0.118,-0.396 0.097,-0.424C0.077,-0.452 0.067,-0.486 0.067,-0.528C0.067,-0.567 0.078,-0.602 0.099,-0.633C0.121,-0.663 0.152,-0.687 0.192,-0.703C0.233,-0.72 0.281,-0.728 0.336,-0.728C0.38,-0.728 0.418,-0.723 0.45,-0.712C0.482,-0.701 0.509,-0.686 0.53,-0.668C0.551,-0.65 0.566,-0.631 0.576,-0.611C0.586,-0.591 0.591,-0.572 0.591,-0.553C0.591,-0.536 0.585,-0.52 0.573,-0.507C0.56,-0.493 0.545,-0.486 0.527,-0.486C0.51,-0.486 0.498,-0.49 0.489,-0.498C0.48,-0.507 0.471,-0.52 0.461,-0.539C0.448,-0.566 0.432,-0.587 0.414,-0.602C0.396,-0.617 0.367,-0.625 0.326,-0.625C0.289,-0.625 0.259,-0.617 0.236,-0.6C0.213,-0.584 0.201,-0.564 0.201,-0.541C0.201,-0.527 0.205,-0.514 0.213,-0.504C0.221,-0.493 0.231,-0.485 0.245,-0.477C0.259,-0.47 0.273,-0.464 0.287,-0.459C0.301,-0.455 0.324,-0.449 0.356,-0.441C0.396,-0.431 0.433,-0.421 0.466,-0.41C0.498,-0.398 0.526,-0.384 0.549,-0.368C0.572,-0.352 0.59,-0.331 0.603,-0.306C0.616,-0.281 0.622,-0.251 0.622,-0.215Z" style="fill:black;fill-rule:nonzero;"/>
            </g>
            <g transform="matrix(87.253,0,0,87.253,58.1971,0)">
                <path d="M0.543,-0.596L0.385,-0.596L0.385,-0.076C0.385,-0.046 0.378,-0.024 0.365,-0.01C0.351,0.005 0.334,0.012 0.313,0.012C0.292,0.012 0.274,0.005 0.26,-0.01C0.247,-0.024 0.24,-0.047 0.24,-0.076L0.24,-0.596L0.082,-0.596C0.057,-0.596 0.039,-0.602 0.027,-0.613C0.015,-0.623 0.009,-0.638 0.009,-0.656C0.009,-0.674 0.015,-0.689 0.028,-0.7C0.04,-0.71 0.058,-0.716 0.082,-0.716L0.543,-0.716C0.568,-0.716 0.587,-0.71 0.599,-0.699C0.611,-0.688 0.617,-0.674 0.617,-0.656C0.617,-0.638 0.611,-0.623 0.599,-0.613C0.586,-0.602 0.568,-0.596 0.543,-0.596Z" style="fill:black;fill-rule:nonzero;"/>
            </g>
            <g transform="matrix(87.253,0,0,87.253,112.73,0)">
                <path d="M0.079,-0.296L0.079,-0.64C0.079,-0.669 0.086,-0.691 0.099,-0.706C0.112,-0.721 0.129,-0.728 0.151,-0.728C0.173,-0.728 0.191,-0.721 0.204,-0.706C0.218,-0.691 0.224,-0.669 0.224,-0.64L0.224,-0.288C0.224,-0.248 0.229,-0.215 0.238,-0.188C0.247,-0.161 0.262,-0.14 0.285,-0.125C0.308,-0.11 0.34,-0.103 0.381,-0.103C0.438,-0.103 0.478,-0.118 0.501,-0.148C0.524,-0.178 0.536,-0.224 0.536,-0.285L0.536,-0.64C0.536,-0.67 0.543,-0.692 0.556,-0.706C0.569,-0.721 0.586,-0.728 0.608,-0.728C0.63,-0.728 0.647,-0.721 0.661,-0.706C0.674,-0.692 0.681,-0.67 0.681,-0.64L0.681,-0.296C0.681,-0.24 0.676,-0.193 0.665,-0.156C0.654,-0.118 0.633,-0.085 0.603,-0.057C0.577,-0.033 0.547,-0.015 0.512,-0.004C0.478,0.007 0.437,0.012 0.391,0.012C0.336,0.012 0.289,0.006 0.249,-0.006C0.209,-0.017 0.177,-0.036 0.152,-0.061C0.127,-0.086 0.108,-0.118 0.097,-0.156C0.085,-0.195 0.079,-0.242 0.079,-0.296Z" style="fill:black;fill-rule:nonzero;"/>
            </g>
            <g transform="matrix(87.253,0,0,87.253,179.022,0)">
                <path d="M0.168,-0.716L0.357,-0.716C0.406,-0.716 0.448,-0.711 0.483,-0.702C0.519,-0.693 0.55,-0.676 0.579,-0.651C0.654,-0.587 0.691,-0.49 0.691,-0.36C0.691,-0.317 0.687,-0.278 0.68,-0.242C0.672,-0.207 0.661,-0.175 0.645,-0.146C0.629,-0.118 0.609,-0.092 0.585,-0.07C0.566,-0.053 0.545,-0.039 0.522,-0.028C0.499,-0.018 0.475,-0.011 0.448,-0.006C0.422,-0.002 0.393,-0 0.36,-0L0.171,-0C0.145,-0 0.125,-0.004 0.111,-0.012C0.098,-0.02 0.089,-0.031 0.085,-0.046C0.081,-0.06 0.079,-0.079 0.079,-0.102L0.079,-0.627C0.079,-0.658 0.086,-0.681 0.1,-0.695C0.114,-0.709 0.137,-0.716 0.168,-0.716ZM0.224,-0.601L0.224,-0.115L0.334,-0.115C0.358,-0.115 0.377,-0.116 0.391,-0.117C0.404,-0.118 0.418,-0.122 0.433,-0.127C0.448,-0.132 0.46,-0.139 0.471,-0.149C0.52,-0.19 0.544,-0.261 0.544,-0.361C0.544,-0.431 0.533,-0.484 0.512,-0.52C0.491,-0.555 0.464,-0.577 0.433,-0.587C0.402,-0.596 0.364,-0.601 0.32,-0.601L0.224,-0.601Z" style="fill:black;fill-rule:nonzero;"/>
            </g>
            <g transform="matrix(87.253,0,0,87.253,243.61,0)">
                <path d="M0.084,-0.076L0.084,-0.64C0.084,-0.669 0.091,-0.691 0.104,-0.706C0.117,-0.721 0.135,-0.728 0.156,-0.728C0.178,-0.728 0.195,-0.721 0.209,-0.706C0.222,-0.692 0.229,-0.67 0.229,-0.64L0.229,-0.076C0.229,-0.047 0.222,-0.024 0.209,-0.01C0.195,0.005 0.178,0.012 0.156,0.012C0.135,0.012 0.118,0.005 0.104,-0.01C0.091,-0.025 0.084,-0.047 0.084,-0.076Z" style="fill:black;fill-rule:nonzero;"/>
            </g>
            <g transform="matrix(87.253,0,0,87.253,270.919,0)">
                <path d="M0.393,-0.728C0.467,-0.728 0.531,-0.713 0.584,-0.683C0.637,-0.653 0.678,-0.61 0.705,-0.554C0.732,-0.499 0.746,-0.434 0.746,-0.359C0.746,-0.304 0.739,-0.253 0.724,-0.208C0.709,-0.163 0.686,-0.124 0.656,-0.09C0.626,-0.057 0.59,-0.032 0.546,-0.014C0.502,0.003 0.452,0.012 0.396,0.012C0.34,0.012 0.29,0.003 0.246,-0.015C0.201,-0.033 0.164,-0.058 0.135,-0.091C0.105,-0.124 0.083,-0.164 0.068,-0.21C0.052,-0.256 0.045,-0.306 0.045,-0.36C0.045,-0.415 0.053,-0.465 0.069,-0.511C0.084,-0.557 0.107,-0.596 0.137,-0.628C0.167,-0.661 0.204,-0.685 0.247,-0.702C0.29,-0.719 0.338,-0.728 0.393,-0.728ZM0.599,-0.36C0.599,-0.412 0.591,-0.458 0.574,-0.496C0.557,-0.535 0.533,-0.564 0.501,-0.583C0.47,-0.603 0.434,-0.613 0.393,-0.613C0.364,-0.613 0.337,-0.607 0.313,-0.596C0.288,-0.586 0.267,-0.57 0.249,-0.549C0.232,-0.528 0.218,-0.501 0.207,-0.469C0.197,-0.437 0.192,-0.4 0.192,-0.36C0.192,-0.319 0.197,-0.282 0.207,-0.25C0.218,-0.217 0.232,-0.189 0.251,-0.168C0.269,-0.146 0.291,-0.13 0.315,-0.119C0.339,-0.108 0.366,-0.103 0.395,-0.103C0.432,-0.103 0.466,-0.112 0.497,-0.131C0.528,-0.149 0.553,-0.178 0.572,-0.217C0.59,-0.256 0.599,-0.303 0.599,-0.36Z" style="fill:black;fill-rule:nonzero;"/>
            </g>
            <g transform="matrix(87.253,0,0,87.253,340.023,0)">
                <path d="M0.622,-0.215C0.622,-0.172 0.611,-0.133 0.589,-0.098C0.566,-0.064 0.534,-0.037 0.491,-0.017C0.448,0.002 0.397,0.012 0.338,0.012C0.267,0.012 0.209,-0.001 0.163,-0.028C0.131,-0.047 0.104,-0.073 0.084,-0.105C0.063,-0.137 0.053,-0.168 0.053,-0.198C0.053,-0.216 0.059,-0.231 0.072,-0.243C0.084,-0.256 0.099,-0.262 0.118,-0.262C0.133,-0.262 0.146,-0.257 0.157,-0.248C0.168,-0.238 0.177,-0.223 0.184,-0.204C0.193,-0.181 0.203,-0.162 0.214,-0.147C0.224,-0.132 0.239,-0.119 0.258,-0.109C0.278,-0.099 0.303,-0.094 0.334,-0.094C0.377,-0.094 0.412,-0.104 0.439,-0.124C0.466,-0.144 0.479,-0.169 0.479,-0.199C0.479,-0.223 0.472,-0.242 0.457,-0.257C0.443,-0.272 0.424,-0.283 0.401,-0.291C0.378,-0.299 0.347,-0.307 0.309,-0.316C0.258,-0.328 0.215,-0.342 0.18,-0.358C0.145,-0.374 0.118,-0.396 0.097,-0.424C0.077,-0.452 0.067,-0.486 0.067,-0.528C0.067,-0.567 0.078,-0.602 0.099,-0.633C0.121,-0.663 0.152,-0.687 0.192,-0.703C0.233,-0.72 0.281,-0.728 0.336,-0.728C0.38,-0.728 0.418,-0.723 0.45,-0.712C0.482,-0.701 0.509,-0.686 0.53,-0.668C0.551,-0.65 0.566,-0.631 0.576,-0.611C0.586,-0.591 0.591,-0.572 0.591,-0.553C0.591,-0.536 0.585,-0.52 0.573,-0.507C0.56,-0.493 0.545,-0.486 0.527,-0.486C0.51,-0.486 0.498,-0.49 0.489,-0.498C0.48,-0.507 0.471,-0.52 0.461,-0.539C0.448,-0.566 0.432,-0.587 0.414,-0.602C0.396,-0.617 0.367,-0.625 0.326,-0.625C0.289,-0.625 0.259,-0.617 0.236,-0.6C0.213,-0.584 0.201,-0.564 0.201,-0.541C0.201,-0.527 0.205,-0.514 0.213,-0.504C0.221,-0.493 0.231,-0.485 0.245,-0.477C0.259,-0.47 0.273,-0.464 0.287,-0.459C0.301,-0.455 0.324,-0.449 0.356,-0.441C0.396,-0.431 0.433,-0.421 0.466,-0.41C0.498,-0.398 0.526,-0.384 0.549,-0.368C0.572,-0.352 0.59,-0.331 0.603,-0.306C0.616,-0.281 0.622,-0.251 0.622,-0.215Z" style="fill:black;fill-rule:nonzero;"/>
            </g>
        </g>
    </g>
</svg>
